<svg width="763" height="585" viewBox="0 0 763 585" fill="none" xmlns="http://www.w3.org/2000/svg">
<g filter="url(#filter0_d_4_416)">
<g clip-path="url(#clip0_4_416)">
<rect x="45" y="30" width="673" height="495" rx="5" fill="#F8F9FA"/>
<rect x="45" y="30" width="673" height="75" fill="#202124"/>
<g clip-path="url(#clip1_4_416)">
<circle cx="64" cy="51" r="6" fill="#ED6559"/>
<circle cx="84" cy="51" r="6" fill="#E1C04C"/>
<circle cx="104" cy="51" r="6" fill="#72BE47"/>
<path d="M117 45C117 40.5817 120.582 37 125 37H349C353.418 37 357 40.5817 357 45V70H117V45Z" fill="#35363A"/>
<g clip-path="url(#clip2_4_416)">
<path d="M130.383 48.4688L132.598 52.752L134.818 48.4688H136.102L133.16 53.8125V57H132.029V53.8125L129.088 48.4688H130.383ZM136.359 53.9004V53.7656C136.359 53.3086 136.426 52.8848 136.559 52.4941C136.691 52.0996 136.883 51.7578 137.133 51.4688C137.383 51.1758 137.686 50.9492 138.041 50.7891C138.396 50.625 138.795 50.543 139.236 50.543C139.682 50.543 140.082 50.625 140.438 50.7891C140.797 50.9492 141.102 51.1758 141.352 51.4688C141.605 51.7578 141.799 52.0996 141.932 52.4941C142.064 52.8848 142.131 53.3086 142.131 53.7656V53.9004C142.131 54.3574 142.064 54.7812 141.932 55.1719C141.799 55.5625 141.605 55.9043 141.352 56.1973C141.102 56.4863 140.799 56.7129 140.443 56.877C140.092 57.0371 139.693 57.1172 139.248 57.1172C138.803 57.1172 138.402 57.0371 138.047 56.877C137.691 56.7129 137.387 56.4863 137.133 56.1973C136.883 55.9043 136.691 55.5625 136.559 55.1719C136.426 54.7812 136.359 54.3574 136.359 53.9004ZM137.443 53.7656V53.9004C137.443 54.2168 137.48 54.5156 137.555 54.7969C137.629 55.0742 137.74 55.3203 137.889 55.5352C138.041 55.75 138.23 55.9199 138.457 56.0449C138.684 56.166 138.947 56.2266 139.248 56.2266C139.545 56.2266 139.805 56.166 140.027 56.0449C140.254 55.9199 140.441 55.75 140.59 55.5352C140.738 55.3203 140.85 55.0742 140.924 54.7969C141.002 54.5156 141.041 54.2168 141.041 53.9004V53.7656C141.041 53.4531 141.002 53.1582 140.924 52.8809C140.85 52.5996 140.736 52.3516 140.584 52.1367C140.436 51.918 140.248 51.7461 140.021 51.6211C139.799 51.4961 139.537 51.4336 139.236 51.4336C138.939 51.4336 138.678 51.4961 138.451 51.6211C138.229 51.7461 138.041 51.918 137.889 52.1367C137.74 52.3516 137.629 52.5996 137.555 52.8809C137.48 53.1582 137.443 53.4531 137.443 53.7656ZM147.369 55.5352V50.6602H148.459V57H147.422L147.369 55.5352ZM147.574 54.1992L148.025 54.1875C148.025 54.6094 147.98 55 147.891 55.3594C147.805 55.7148 147.664 56.0234 147.469 56.2852C147.273 56.5469 147.018 56.752 146.701 56.9004C146.385 57.0449 146 57.1172 145.547 57.1172C145.238 57.1172 144.955 57.0723 144.697 56.9824C144.443 56.8926 144.225 56.7539 144.041 56.5664C143.857 56.3789 143.715 56.1348 143.613 55.834C143.516 55.5332 143.467 55.1719 143.467 54.75V50.6602H144.551V54.7617C144.551 55.0469 144.582 55.2832 144.645 55.4707C144.711 55.6543 144.799 55.8008 144.908 55.9102C145.021 56.0156 145.146 56.0898 145.283 56.1328C145.424 56.1758 145.568 56.1973 145.717 56.1973C146.178 56.1973 146.543 56.1094 146.812 55.9336C147.082 55.7539 147.275 55.5137 147.393 55.2129C147.514 54.9082 147.574 54.5703 147.574 54.1992ZM153.428 48.4688V57H152.314V48.4688H153.428ZM156.17 48.4688V49.3945H149.578V48.4688H156.17ZM160.588 55.5352V50.6602H161.678V57H160.641L160.588 55.5352ZM160.793 54.1992L161.244 54.1875C161.244 54.6094 161.199 55 161.109 55.3594C161.023 55.7148 160.883 56.0234 160.688 56.2852C160.492 56.5469 160.236 56.752 159.92 56.9004C159.604 57.0449 159.219 57.1172 158.766 57.1172C158.457 57.1172 158.174 57.0723 157.916 56.9824C157.662 56.8926 157.443 56.7539 157.26 56.5664C157.076 56.3789 156.934 56.1348 156.832 55.834C156.734 55.5332 156.686 55.1719 156.686 54.75V50.6602H157.77V54.7617C157.77 55.0469 157.801 55.2832 157.863 55.4707C157.93 55.6543 158.018 55.8008 158.127 55.9102C158.24 56.0156 158.365 56.0898 158.502 56.1328C158.643 56.1758 158.787 56.1973 158.936 56.1973C159.396 56.1973 159.762 56.1094 160.031 55.9336C160.301 55.7539 160.494 55.5137 160.611 55.2129C160.732 54.9082 160.793 54.5703 160.793 54.1992ZM163.324 48H164.414V55.7695L164.32 57H163.324V48ZM168.697 53.7773V53.9004C168.697 54.3613 168.643 54.7891 168.533 55.1836C168.424 55.5742 168.264 55.9141 168.053 56.2031C167.842 56.4922 167.584 56.7168 167.279 56.877C166.975 57.0371 166.625 57.1172 166.23 57.1172C165.828 57.1172 165.475 57.0488 165.17 56.9121C164.869 56.7715 164.615 56.5703 164.408 56.3086C164.201 56.0469 164.035 55.7305 163.91 55.3594C163.789 54.9883 163.705 54.5703 163.658 54.1055V53.5664C163.705 53.0977 163.789 52.6777 163.91 52.3066C164.035 51.9355 164.201 51.6191 164.408 51.3574C164.615 51.0918 164.869 50.8906 165.17 50.7539C165.471 50.6133 165.82 50.543 166.219 50.543C166.617 50.543 166.971 50.6211 167.279 50.7773C167.588 50.9297 167.846 51.1484 168.053 51.4336C168.264 51.7188 168.424 52.0605 168.533 52.459C168.643 52.8535 168.697 53.293 168.697 53.7773ZM167.607 53.9004V53.7773C167.607 53.4609 167.578 53.1641 167.52 52.8867C167.461 52.6055 167.367 52.3594 167.238 52.1484C167.109 51.9336 166.939 51.7656 166.729 51.6445C166.518 51.5195 166.258 51.457 165.949 51.457C165.676 51.457 165.438 51.5039 165.234 51.5977C165.035 51.6914 164.865 51.8184 164.725 51.9785C164.584 52.1348 164.469 52.3145 164.379 52.5176C164.293 52.7168 164.229 52.9238 164.186 53.1387V54.5508C164.248 54.8242 164.35 55.0879 164.49 55.3418C164.635 55.5918 164.826 55.7969 165.064 55.957C165.307 56.1172 165.605 56.1973 165.961 56.1973C166.254 56.1973 166.504 56.1387 166.711 56.0215C166.922 55.9004 167.092 55.7344 167.221 55.5234C167.354 55.3125 167.451 55.0684 167.514 54.791C167.576 54.5137 167.607 54.2168 167.607 53.9004ZM172.699 57.1172C172.258 57.1172 171.857 57.043 171.498 56.8945C171.143 56.7422 170.836 56.5293 170.578 56.2559C170.324 55.9824 170.129 55.6582 169.992 55.2832C169.855 54.9082 169.787 54.498 169.787 54.0527V53.8066C169.787 53.291 169.863 52.832 170.016 52.4297C170.168 52.0234 170.375 51.6797 170.637 51.3984C170.898 51.1172 171.195 50.9043 171.527 50.7598C171.859 50.6152 172.203 50.543 172.559 50.543C173.012 50.543 173.402 50.6211 173.73 50.7773C174.062 50.9336 174.334 51.1523 174.545 51.4336C174.756 51.7109 174.912 52.0391 175.014 52.418C175.115 52.793 175.166 53.2031 175.166 53.6484V54.1348H170.432V53.25H174.082V53.168C174.066 52.8867 174.008 52.6133 173.906 52.3477C173.809 52.082 173.652 51.8633 173.438 51.6914C173.223 51.5195 172.93 51.4336 172.559 51.4336C172.312 51.4336 172.086 51.4863 171.879 51.5918C171.672 51.6934 171.494 51.8457 171.346 52.0488C171.197 52.252 171.082 52.5 171 52.793C170.918 53.0859 170.877 53.4238 170.877 53.8066V54.0527C170.877 54.3535 170.918 54.6367 171 54.9023C171.086 55.1641 171.209 55.3945 171.369 55.5938C171.533 55.793 171.73 55.9492 171.961 56.0625C172.195 56.1758 172.461 56.2324 172.758 56.2324C173.141 56.2324 173.465 56.1543 173.73 55.998C173.996 55.8418 174.229 55.6328 174.428 55.3711L175.084 55.8926C174.947 56.0996 174.773 56.2969 174.562 56.4844C174.352 56.6719 174.092 56.8242 173.783 56.9414C173.479 57.0586 173.117 57.1172 172.699 57.1172Z" fill="white"/>
</g>
<rect x="320" y="70" width="33" height="29" transform="rotate(-90 320 70)" fill="url(#paint0_linear_4_416)"/>
<path d="M337 50L340.5 53.5L344 57M344 50L337 57" stroke="white" stroke-width="1.5" stroke-linecap="round" stroke-linejoin="round"/>
<path d="M109 70H117V62C117 66.4183 113.418 70 109 70Z" fill="#35363A"/>
<path d="M365 70H357V62C357 66.4183 360.582 70 365 70Z" fill="#35363A"/>
<g clip-path="url(#clip3_4_416)">
<path d="M367.896 53.5H377.883M372.89 48V59" stroke="white" stroke-width="2" stroke-linecap="round"/>
</g>
</g>
<rect x="45" y="70" width="673" height="35" fill="#35363A"/>
<circle cx="692.25" cy="83.25" r="1.25" fill="#606368"/>
<circle cx="692.25" cy="88.25" r="1.25" fill="#606368"/>
<circle cx="692.25" cy="93.25" r="1.25" fill="#606368"/>
<circle cx="661" cy="88" r="10" fill="#C4C4C4" stroke="#B9B9B9" stroke-width="2"/>
<path d="M638 80V96" stroke="#CFD0D1"/>
<g clip-path="url(#clip4_4_416)">
<rect x="603" y="80" width="16" height="16" fill="#C4C4C4"/>
</g>
<path d="M74 88.5H62M62 88.5L67.5 83M62 88.5L67.5 94" stroke="#86888A" stroke-width="1.5" stroke-linecap="round" stroke-linejoin="round"/>
<path d="M91 88.5L103 88.5M103 88.5L97.5 94M103 88.5L97.5 83" stroke="#606368" stroke-width="1.5" stroke-linecap="round" stroke-linejoin="round"/>
<path d="M133 86L135 84.0278L134.985 84.0147L137 82V86H133Z" fill="#F1F3F4"/>
<path d="M137 88.5C137 91.8137 134.314 94.5 131 94.5C127.686 94.5 125 91.8137 125 88.5C125 85.1863 127.686 82.5 131 82.5C132.53 82.5 133.926 83.0724 134.985 84.0147M134.985 84.0147C134.99 84.019 134.995 84.0234 135 84.0278L133 86H137V82L134.985 84.0147Z" stroke="#F1F3F4" stroke-width="1.5"/>
<rect x="155" y="74" width="432" height="28" rx="14" fill="#202124"/>
<path d="M186.912 82.5V93H185.648V82.5H186.912ZM186.612 89.0215L186.085 89.001C186.09 88.4951 186.165 88.028 186.311 87.5996C186.457 87.1667 186.662 86.7907 186.926 86.4717C187.19 86.1527 187.505 85.9066 187.869 85.7334C188.239 85.5557 188.646 85.4668 189.093 85.4668C189.458 85.4668 189.786 85.5169 190.077 85.6172C190.369 85.7129 190.617 85.8678 190.823 86.082C191.032 86.2962 191.192 86.5742 191.301 86.916C191.41 87.2533 191.465 87.6657 191.465 88.1533V93H190.194V88.1396C190.194 87.7523 190.137 87.4424 190.023 87.21C189.909 86.973 189.742 86.8021 189.524 86.6973C189.305 86.5879 189.036 86.5332 188.717 86.5332C188.403 86.5332 188.115 86.5993 187.856 86.7314C187.601 86.8636 187.379 87.0459 187.193 87.2783C187.01 87.5107 186.867 87.7773 186.762 88.0781C186.662 88.3743 186.612 88.6888 186.612 89.0215ZM196.455 85.6035V86.5742H192.456V85.6035H196.455ZM193.81 83.8057H195.074V91.168C195.074 91.4186 195.113 91.6077 195.191 91.7354C195.268 91.863 195.368 91.9473 195.491 91.9883C195.615 92.0293 195.747 92.0498 195.888 92.0498C195.993 92.0498 196.102 92.0407 196.216 92.0225C196.335 91.9997 196.423 91.9814 196.483 91.9678L196.49 93C196.389 93.0319 196.257 93.0615 196.093 93.0889C195.934 93.1208 195.74 93.1367 195.512 93.1367C195.202 93.1367 194.917 93.0752 194.657 92.9521C194.398 92.8291 194.19 92.624 194.035 92.3369C193.885 92.0452 193.81 91.6533 193.81 91.1611V83.8057ZM201.035 85.6035V86.5742H197.036V85.6035H201.035ZM198.39 83.8057H199.655V91.168C199.655 91.4186 199.693 91.6077 199.771 91.7354C199.848 91.863 199.948 91.9473 200.072 91.9883C200.195 92.0293 200.327 92.0498 200.468 92.0498C200.573 92.0498 200.682 92.0407 200.796 92.0225C200.915 91.9997 201.003 91.9814 201.063 91.9678L201.07 93C200.969 93.0319 200.837 93.0615 200.673 93.0889C200.514 93.1208 200.32 93.1367 200.092 93.1367C199.782 93.1367 199.497 93.0752 199.238 92.9521C198.978 92.8291 198.77 92.624 198.615 92.3369C198.465 92.0452 198.39 91.6533 198.39 91.1611V83.8057ZM203.783 87.0254V95.8438H202.512V85.6035H203.674L203.783 87.0254ZM208.767 89.2402V89.3838C208.767 89.9215 208.703 90.4206 208.575 90.8809C208.448 91.3366 208.261 91.7331 208.015 92.0703C207.773 92.4076 207.475 92.6696 207.119 92.8564C206.764 93.0433 206.356 93.1367 205.896 93.1367C205.426 93.1367 205.012 93.0592 204.652 92.9043C204.292 92.7493 203.986 92.5238 203.736 92.2275C203.485 91.9313 203.284 91.5758 203.134 91.1611C202.988 90.7464 202.888 90.2793 202.833 89.7598V88.9941C202.888 88.4473 202.99 87.9574 203.141 87.5244C203.291 87.0915 203.49 86.7223 203.736 86.417C203.986 86.1071 204.289 85.8724 204.645 85.7129C205 85.5488 205.41 85.4668 205.875 85.4668C206.34 85.4668 206.753 85.5579 207.113 85.7402C207.473 85.918 207.776 86.1732 208.022 86.5059C208.268 86.8385 208.452 87.2373 208.575 87.7021C208.703 88.1624 208.767 88.6751 208.767 89.2402ZM207.495 89.3838V89.2402C207.495 88.8711 207.457 88.5247 207.379 88.2012C207.302 87.873 207.181 87.5859 207.017 87.3398C206.857 87.0892 206.652 86.8932 206.402 86.752C206.151 86.6061 205.852 86.5332 205.506 86.5332C205.187 86.5332 204.909 86.5879 204.672 86.6973C204.44 86.8066 204.241 86.9548 204.077 87.1416C203.913 87.3239 203.779 87.5335 203.674 87.7705C203.574 88.0029 203.499 88.2445 203.448 88.4951V90.2656C203.54 90.5846 203.667 90.8854 203.831 91.168C203.995 91.446 204.214 91.6715 204.488 91.8447C204.761 92.0133 205.105 92.0977 205.52 92.0977C205.862 92.0977 206.156 92.027 206.402 91.8857C206.652 91.7399 206.857 91.5417 207.017 91.291C207.181 91.0404 207.302 90.7533 207.379 90.4297C207.457 90.1016 207.495 89.7529 207.495 89.3838ZM214.687 91.0381C214.687 90.8558 214.646 90.6872 214.564 90.5322C214.486 90.3727 214.324 90.2292 214.078 90.1016C213.837 89.9694 213.472 89.8555 212.985 89.7598C212.574 89.6732 212.203 89.5706 211.87 89.4521C211.542 89.3337 211.262 89.1901 211.03 89.0215C210.802 88.8529 210.626 88.6546 210.503 88.4268C210.38 88.1989 210.319 87.9323 210.319 87.627C210.319 87.3353 210.382 87.0596 210.51 86.7998C210.642 86.54 210.827 86.3099 211.064 86.1094C211.305 85.9089 211.595 85.7516 211.932 85.6377C212.269 85.5238 212.645 85.4668 213.06 85.4668C213.652 85.4668 214.158 85.5716 214.577 85.7812C214.997 85.9909 215.318 86.2712 215.541 86.6221C215.765 86.9684 215.876 87.3535 215.876 87.7773H214.612C214.612 87.5723 214.55 87.374 214.427 87.1826C214.309 86.9867 214.133 86.8249 213.901 86.6973C213.673 86.5697 213.392 86.5059 213.06 86.5059C212.709 86.5059 212.424 86.5605 212.205 86.6699C211.991 86.7747 211.834 86.9092 211.734 87.0732C211.638 87.2373 211.59 87.4105 211.59 87.5928C211.59 87.7295 211.613 87.8525 211.658 87.9619C211.709 88.0667 211.795 88.1647 211.918 88.2559C212.041 88.3424 212.214 88.4245 212.438 88.502C212.661 88.5794 212.946 88.6569 213.292 88.7344C213.898 88.8711 214.397 89.0352 214.789 89.2266C215.181 89.418 215.473 89.6527 215.664 89.9307C215.856 90.2087 215.951 90.5459 215.951 90.9424C215.951 91.266 215.883 91.5622 215.746 91.8311C215.614 92.0999 215.42 92.3324 215.165 92.5283C214.915 92.7197 214.614 92.8701 214.263 92.9795C213.917 93.0843 213.527 93.1367 213.094 93.1367C212.442 93.1367 211.891 93.0205 211.44 92.7881C210.989 92.5557 210.647 92.2549 210.414 91.8857C210.182 91.5166 210.066 91.127 210.066 90.7168H211.337C211.355 91.0632 211.456 91.3389 211.638 91.5439C211.82 91.7445 212.044 91.888 212.308 91.9746C212.572 92.0566 212.834 92.0977 213.094 92.0977C213.44 92.0977 213.73 92.0521 213.962 91.9609C214.199 91.8698 214.379 91.7445 214.502 91.585C214.625 91.4255 214.687 91.2432 214.687 91.0381ZM217.558 92.3301C217.558 92.1159 217.624 91.9359 217.756 91.79C217.893 91.6396 218.089 91.5645 218.344 91.5645C218.599 91.5645 218.793 91.6396 218.925 91.79C219.062 91.9359 219.13 92.1159 219.13 92.3301C219.13 92.5397 219.062 92.7174 218.925 92.8633C218.793 93.0091 218.599 93.082 218.344 93.082C218.089 93.082 217.893 93.0091 217.756 92.8633C217.624 92.7174 217.558 92.5397 217.558 92.3301ZM217.565 86.2939C217.565 86.0798 217.631 85.8997 217.763 85.7539C217.9 85.6035 218.096 85.5283 218.351 85.5283C218.606 85.5283 218.8 85.6035 218.932 85.7539C219.069 85.8997 219.137 86.0798 219.137 86.2939C219.137 86.5036 219.069 86.6813 218.932 86.8271C218.8 86.973 218.606 87.0459 218.351 87.0459C218.096 87.0459 217.9 86.973 217.763 86.8271C217.631 86.6813 217.565 86.5036 217.565 86.2939ZM225.406 83.0469L221.256 93.8545H220.169L224.325 83.0469H225.406ZM229.657 83.0469L225.508 93.8545H224.421L228.577 83.0469H229.657ZM232.911 91.6875L234.812 85.6035H235.646L235.482 86.8135L233.547 93H232.734L232.911 91.6875ZM231.633 85.6035L233.253 91.7559L233.369 93H232.515L230.368 85.6035H231.633ZM237.464 91.708L239.009 85.6035H240.267L238.12 93H237.273L237.464 91.708ZM235.83 85.6035L237.69 91.585L237.902 93H237.095L235.106 86.7998L234.942 85.6035H235.83ZM243.439 91.6875L245.339 85.6035H246.173L246.009 86.8135L244.074 93H243.261L243.439 91.6875ZM242.16 85.6035L243.781 91.7559L243.897 93H243.042L240.896 85.6035H242.16ZM247.991 91.708L249.536 85.6035H250.794L248.648 93H247.8L247.991 91.708ZM246.358 85.6035L248.217 91.585L248.429 93H247.622L245.633 86.7998L245.469 85.6035H246.358ZM253.966 91.6875L255.866 85.6035H256.7L256.536 86.8135L254.602 93H253.788L253.966 91.6875ZM252.688 85.6035L254.308 91.7559L254.424 93H253.57L251.423 85.6035H252.688ZM258.519 91.708L260.064 85.6035H261.322L259.175 93H258.327L258.519 91.708ZM256.885 85.6035L258.744 91.585L258.956 93H258.15L256.16 86.7998L255.996 85.6035H256.885ZM261.793 92.3301C261.793 92.1159 261.859 91.9359 261.991 91.79C262.128 91.6396 262.324 91.5645 262.579 91.5645C262.835 91.5645 263.028 91.6396 263.16 91.79C263.297 91.9359 263.365 92.1159 263.365 92.3301C263.365 92.5397 263.297 92.7174 263.16 92.8633C263.028 93.0091 262.835 93.082 262.579 93.082C262.324 93.082 262.128 93.0091 261.991 92.8633C261.859 92.7174 261.793 92.5397 261.793 92.3301ZM267.542 92.2344L269.6 85.6035H270.953L267.987 94.1416C267.918 94.3239 267.827 94.5199 267.713 94.7295C267.604 94.9437 267.462 95.1465 267.289 95.3379C267.116 95.5293 266.906 95.6842 266.66 95.8027C266.419 95.9258 266.129 95.9873 265.792 95.9873C265.692 95.9873 265.564 95.9736 265.409 95.9463C265.254 95.9189 265.145 95.8962 265.081 95.8779L265.074 94.8525C265.111 94.8571 265.168 94.8617 265.245 94.8662C265.327 94.8753 265.384 94.8799 265.416 94.8799C265.703 94.8799 265.947 94.8411 266.148 94.7637C266.348 94.6908 266.517 94.5654 266.654 94.3877C266.795 94.2145 266.916 93.9753 267.016 93.6699L267.542 92.2344ZM266.031 85.6035L267.952 91.3457L268.281 92.6787L267.371 93.1436L264.651 85.6035H266.031ZM271.651 89.3838V89.2266C271.651 88.6934 271.728 88.1989 271.883 87.7432C272.038 87.2829 272.261 86.8841 272.553 86.5469C272.845 86.2051 273.198 85.9408 273.613 85.7539C274.027 85.5625 274.492 85.4668 275.007 85.4668C275.527 85.4668 275.994 85.5625 276.408 85.7539C276.828 85.9408 277.183 86.2051 277.475 86.5469C277.771 86.8841 277.997 87.2829 278.152 87.7432C278.307 88.1989 278.384 88.6934 278.384 89.2266V89.3838C278.384 89.917 278.307 90.4115 278.152 90.8672C277.997 91.3229 277.771 91.7217 277.475 92.0635C277.183 92.4007 276.83 92.665 276.415 92.8564C276.005 93.0433 275.54 93.1367 275.021 93.1367C274.501 93.1367 274.034 93.0433 273.619 92.8564C273.205 92.665 272.849 92.4007 272.553 92.0635C272.261 91.7217 272.038 91.3229 271.883 90.8672C271.728 90.4115 271.651 89.917 271.651 89.3838ZM272.915 89.2266V89.3838C272.915 89.7529 272.959 90.1016 273.045 90.4297C273.132 90.7533 273.262 91.0404 273.435 91.291C273.613 91.5417 273.834 91.7399 274.098 91.8857C274.362 92.027 274.67 92.0977 275.021 92.0977C275.367 92.0977 275.67 92.027 275.93 91.8857C276.194 91.7399 276.413 91.5417 276.586 91.291C276.759 91.0404 276.889 90.7533 276.976 90.4297C277.067 90.1016 277.113 89.7529 277.113 89.3838V89.2266C277.113 88.862 277.067 88.5179 276.976 88.1943C276.889 87.8662 276.757 87.5768 276.579 87.3262C276.406 87.071 276.187 86.8704 275.923 86.7246C275.663 86.5788 275.358 86.5059 275.007 86.5059C274.661 86.5059 274.355 86.5788 274.091 86.7246C273.831 86.8704 273.613 87.071 273.435 87.3262C273.262 87.5768 273.132 87.8662 273.045 88.1943C272.959 88.5179 272.915 88.862 272.915 89.2266ZM284.495 91.291V85.6035H285.767V93H284.557L284.495 91.291ZM284.735 89.7324L285.261 89.7188C285.261 90.2109 285.209 90.6667 285.104 91.0859C285.003 91.5007 284.839 91.8607 284.612 92.166C284.384 92.4714 284.085 92.7106 283.716 92.8838C283.347 93.0524 282.898 93.1367 282.369 93.1367C282.009 93.1367 281.679 93.0843 281.378 92.9795C281.082 92.8747 280.827 92.7129 280.613 92.4941C280.398 92.2754 280.232 91.9906 280.114 91.6396C280 91.2887 279.943 90.8672 279.943 90.375V85.6035H281.207V90.3887C281.207 90.7214 281.244 90.9971 281.317 91.2158C281.394 91.43 281.497 91.6009 281.624 91.7285C281.756 91.8516 281.902 91.9382 282.062 91.9883C282.226 92.0384 282.394 92.0635 282.568 92.0635C283.105 92.0635 283.531 91.9609 283.846 91.7559C284.16 91.5462 284.386 91.266 284.523 90.915C284.664 90.5596 284.735 90.1654 284.735 89.7324ZM290.791 85.6035V86.5742H286.792V85.6035H290.791ZM288.146 83.8057H289.41V91.168C289.41 91.4186 289.449 91.6077 289.527 91.7354C289.604 91.863 289.704 91.9473 289.827 91.9883C289.95 92.0293 290.083 92.0498 290.224 92.0498C290.329 92.0498 290.438 92.0407 290.552 92.0225C290.67 91.9997 290.759 91.9814 290.819 91.9678L290.825 93C290.725 93.0319 290.593 93.0615 290.429 93.0889C290.269 93.1208 290.076 93.1367 289.848 93.1367C289.538 93.1367 289.253 93.0752 288.993 92.9521C288.734 92.8291 288.526 92.624 288.371 92.3369C288.221 92.0452 288.146 91.6533 288.146 91.1611V83.8057ZM296.8 91.291V85.6035H298.072V93H296.862L296.8 91.291ZM297.039 89.7324L297.566 89.7188C297.566 90.2109 297.513 90.6667 297.408 91.0859C297.308 91.5007 297.144 91.8607 296.916 92.166C296.688 92.4714 296.39 92.7106 296.021 92.8838C295.652 93.0524 295.203 93.1367 294.674 93.1367C294.314 93.1367 293.984 93.0843 293.683 92.9795C293.387 92.8747 293.131 92.7129 292.917 92.4941C292.703 92.2754 292.537 91.9906 292.418 91.6396C292.304 91.2887 292.247 90.8672 292.247 90.375V85.6035H293.512V90.3887C293.512 90.7214 293.548 90.9971 293.621 91.2158C293.699 91.43 293.801 91.6009 293.929 91.7285C294.061 91.8516 294.207 91.9382 294.366 91.9883C294.531 92.0384 294.699 92.0635 294.872 92.0635C295.41 92.0635 295.836 91.9609 296.151 91.7559C296.465 91.5462 296.691 91.266 296.827 90.915C296.969 90.5596 297.039 90.1654 297.039 89.7324ZM299.992 82.5H301.264V91.5645L301.155 93H299.992V82.5ZM306.261 89.2402V89.3838C306.261 89.9215 306.197 90.4206 306.07 90.8809C305.942 91.3366 305.755 91.7331 305.509 92.0703C305.263 92.4076 304.962 92.6696 304.607 92.8564C304.251 93.0433 303.843 93.1367 303.383 93.1367C302.914 93.1367 302.501 93.057 302.146 92.8975C301.795 92.7334 301.499 92.4987 301.257 92.1934C301.016 91.888 300.822 91.5189 300.676 91.0859C300.535 90.653 300.437 90.1654 300.382 89.623V88.9941C300.437 88.4473 300.535 87.9574 300.676 87.5244C300.822 87.0915 301.016 86.7223 301.257 86.417C301.499 86.1071 301.795 85.8724 302.146 85.7129C302.497 85.5488 302.905 85.4668 303.369 85.4668C303.834 85.4668 304.247 85.5579 304.607 85.7402C304.967 85.918 305.267 86.1732 305.509 86.5059C305.755 86.8385 305.942 87.2373 306.07 87.7021C306.197 88.1624 306.261 88.6751 306.261 89.2402ZM304.99 89.3838V89.2402C304.99 88.8711 304.955 88.5247 304.887 88.2012C304.819 87.873 304.709 87.5859 304.559 87.3398C304.408 87.0892 304.21 86.8932 303.964 86.752C303.718 86.6061 303.415 86.5332 303.055 86.5332C302.736 86.5332 302.458 86.5879 302.221 86.6973C301.989 86.8066 301.79 86.9548 301.626 87.1416C301.462 87.3239 301.328 87.5335 301.223 87.7705C301.123 88.0029 301.047 88.2445 300.997 88.4951V90.1426C301.07 90.4616 301.189 90.7692 301.353 91.0654C301.521 91.3571 301.745 91.5964 302.023 91.7832C302.305 91.9701 302.654 92.0635 303.069 92.0635C303.41 92.0635 303.702 91.9951 303.944 91.8584C304.19 91.7171 304.388 91.5234 304.538 91.2773C304.693 91.0312 304.807 90.7464 304.88 90.4229C304.953 90.0993 304.99 89.7529 304.99 89.3838ZM310.93 93.1367C310.415 93.1367 309.948 93.0501 309.529 92.877C309.114 92.6992 308.756 92.4508 308.455 92.1318C308.159 91.8128 307.931 91.4346 307.772 90.9971C307.612 90.5596 307.532 90.0811 307.532 89.5615V89.2744C307.532 88.6729 307.621 88.1374 307.799 87.668C307.977 87.194 308.218 86.793 308.524 86.4648C308.829 86.1367 309.175 85.8883 309.563 85.7197C309.95 85.5511 310.351 85.4668 310.766 85.4668C311.295 85.4668 311.75 85.5579 312.133 85.7402C312.52 85.9225 312.837 86.1777 313.083 86.5059C313.329 86.8294 313.512 87.2122 313.63 87.6543C313.749 88.0918 313.808 88.5703 313.808 89.0898V89.6572H308.284V88.625H312.543V88.5293C312.525 88.2012 312.457 87.8822 312.338 87.5723C312.224 87.2624 312.042 87.0072 311.791 86.8066C311.541 86.6061 311.199 86.5059 310.766 86.5059C310.479 86.5059 310.214 86.5674 309.973 86.6904C309.731 86.8089 309.524 86.9867 309.351 87.2236C309.178 87.4606 309.043 87.75 308.948 88.0918C308.852 88.4336 308.804 88.8278 308.804 89.2744V89.5615C308.804 89.9124 308.852 90.2428 308.948 90.5527C309.048 90.8581 309.191 91.127 309.378 91.3594C309.57 91.5918 309.8 91.7741 310.069 91.9062C310.342 92.0384 310.652 92.1045 310.998 92.1045C311.445 92.1045 311.823 92.0133 312.133 91.8311C312.443 91.6488 312.714 91.4049 312.947 91.0996L313.712 91.708C313.553 91.9495 313.35 92.1797 313.104 92.3984C312.858 92.6172 312.555 92.7949 312.195 92.9316C311.839 93.0684 311.418 93.1367 310.93 93.1367ZM315.305 92.3301C315.305 92.1159 315.371 91.9359 315.503 91.79C315.64 91.6396 315.836 91.5645 316.091 91.5645C316.346 91.5645 316.54 91.6396 316.672 91.79C316.809 91.9359 316.877 92.1159 316.877 92.3301C316.877 92.5397 316.809 92.7174 316.672 92.8633C316.54 93.0091 316.346 93.082 316.091 93.082C315.836 93.082 315.64 93.0091 315.503 92.8633C315.371 92.7174 315.305 92.5397 315.305 92.3301ZM321.936 92.0977C322.237 92.0977 322.515 92.0361 322.77 91.9131C323.025 91.79 323.235 91.6214 323.399 91.4072C323.563 91.1885 323.656 90.9401 323.679 90.6621H324.882C324.859 91.0996 324.711 91.5075 324.438 91.8857C324.169 92.2594 323.816 92.5625 323.378 92.7949C322.941 93.0228 322.46 93.1367 321.936 93.1367C321.38 93.1367 320.894 93.0387 320.48 92.8428C320.07 92.6468 319.728 92.3779 319.454 92.0361C319.185 91.6943 318.983 91.3024 318.846 90.8604C318.714 90.4137 318.648 89.9421 318.648 89.4453V89.1582C318.648 88.6615 318.714 88.1921 318.846 87.75C318.983 87.3034 319.185 86.9092 319.454 86.5674C319.728 86.2256 320.07 85.9567 320.48 85.7607C320.894 85.5648 321.38 85.4668 321.936 85.4668C322.515 85.4668 323.02 85.5853 323.453 85.8223C323.886 86.0547 324.226 86.3737 324.472 86.7793C324.723 87.1803 324.859 87.6361 324.882 88.1465H323.679C323.656 87.8411 323.57 87.5654 323.419 87.3193C323.273 87.0732 323.073 86.8773 322.818 86.7314C322.567 86.5811 322.273 86.5059 321.936 86.5059C321.548 86.5059 321.223 86.5833 320.958 86.7383C320.698 86.8887 320.491 87.0938 320.336 87.3535C320.186 87.6087 320.076 87.8936 320.008 88.208C319.944 88.5179 319.912 88.8346 319.912 89.1582V89.4453C319.912 89.7689 319.944 90.0879 320.008 90.4023C320.072 90.7168 320.179 91.0016 320.329 91.2568C320.484 91.512 320.692 91.7171 320.951 91.8721C321.216 92.0225 321.544 92.0977 321.936 92.0977ZM325.969 89.3838V89.2266C325.969 88.6934 326.046 88.1989 326.201 87.7432C326.356 87.2829 326.58 86.8841 326.871 86.5469C327.163 86.2051 327.516 85.9408 327.931 85.7539C328.346 85.5625 328.81 85.4668 329.325 85.4668C329.845 85.4668 330.312 85.5625 330.727 85.7539C331.146 85.9408 331.502 86.2051 331.793 86.5469C332.089 86.8841 332.315 87.2829 332.47 87.7432C332.625 88.1989 332.702 88.6934 332.702 89.2266V89.3838C332.702 89.917 332.625 90.4115 332.47 90.8672C332.315 91.3229 332.089 91.7217 331.793 92.0635C331.502 92.4007 331.148 92.665 330.734 92.8564C330.323 93.0433 329.859 93.1367 329.339 93.1367C328.82 93.1367 328.352 93.0433 327.938 92.8564C327.523 92.665 327.168 92.4007 326.871 92.0635C326.58 91.7217 326.356 91.3229 326.201 90.8672C326.046 90.4115 325.969 89.917 325.969 89.3838ZM327.234 89.2266V89.3838C327.234 89.7529 327.277 90.1016 327.364 90.4297C327.45 90.7533 327.58 91.0404 327.753 91.291C327.931 91.5417 328.152 91.7399 328.416 91.8857C328.681 92.027 328.988 92.0977 329.339 92.0977C329.685 92.0977 329.989 92.027 330.248 91.8857C330.513 91.7399 330.731 91.5417 330.905 91.291C331.078 91.0404 331.208 90.7533 331.294 90.4297C331.385 90.1016 331.431 89.7529 331.431 89.3838V89.2266C331.431 88.862 331.385 88.5179 331.294 88.1943C331.208 87.8662 331.075 87.5768 330.898 87.3262C330.725 87.071 330.506 86.8704 330.241 86.7246C329.982 86.5788 329.676 86.5059 329.325 86.5059C328.979 86.5059 328.674 86.5788 328.409 86.7246C328.15 86.8704 327.931 87.071 327.753 87.3262C327.58 87.5768 327.45 87.8662 327.364 88.1943C327.277 88.5179 327.234 88.862 327.234 89.2266ZM335.546 87.0732V93H334.275V85.6035H335.478L335.546 87.0732ZM335.286 89.0215L334.698 89.001C334.703 88.4951 334.769 88.028 334.897 87.5996C335.024 87.1667 335.213 86.7907 335.464 86.4717C335.715 86.1527 336.027 85.9066 336.401 85.7334C336.774 85.5557 337.207 85.4668 337.699 85.4668C338.046 85.4668 338.365 85.5169 338.656 85.6172C338.948 85.7129 339.201 85.8656 339.415 86.0752C339.629 86.2848 339.796 86.5537 339.914 86.8818C340.033 87.21 340.092 87.6064 340.092 88.0713V93H338.827V88.1328C338.827 87.7454 338.761 87.4355 338.629 87.2031C338.502 86.9707 338.319 86.8021 338.082 86.6973C337.845 86.5879 337.567 86.5332 337.248 86.5332C336.875 86.5332 336.562 86.5993 336.312 86.7314C336.061 86.8636 335.861 87.0459 335.71 87.2783C335.56 87.5107 335.45 87.7773 335.382 88.0781C335.318 88.3743 335.286 88.6888 335.286 89.0215ZM340.078 88.3242L339.231 88.584C339.235 88.1784 339.301 87.7887 339.429 87.415C339.561 87.0413 339.75 86.7087 339.996 86.417C340.247 86.1253 340.555 85.8952 340.919 85.7266C341.284 85.5534 341.701 85.4668 342.17 85.4668C342.567 85.4668 342.918 85.5192 343.223 85.624C343.533 85.7288 343.793 85.8906 344.002 86.1094C344.216 86.3236 344.378 86.5993 344.488 86.9365C344.597 87.2738 344.652 87.6748 344.652 88.1396V93H343.38V88.126C343.38 87.7113 343.314 87.39 343.182 87.1621C343.054 86.9297 342.872 86.7679 342.635 86.6768C342.403 86.5811 342.125 86.5332 341.801 86.5332C341.523 86.5332 341.277 86.5811 341.063 86.6768C340.849 86.7725 340.669 86.9046 340.523 87.0732C340.377 87.2373 340.265 87.4264 340.188 87.6406C340.115 87.8548 340.078 88.0827 340.078 88.3242ZM350.968 83.0469L346.819 93.8545H345.732L349.888 83.0469H350.968ZM354.222 91.6875L356.122 85.6035H356.956L356.792 86.8135L354.858 93H354.044L354.222 91.6875ZM352.944 85.6035L354.564 91.7559L354.68 93H353.825L351.679 85.6035H352.944ZM358.775 91.708L360.32 85.6035H361.577L359.431 93H358.583L358.775 91.708ZM357.141 85.6035L359 91.585L359.212 93H358.406L356.416 86.7998L356.252 85.6035H357.141ZM367.238 91.7354V87.9277C367.238 87.6361 367.178 87.3831 367.06 87.1689C366.946 86.9502 366.773 86.7816 366.54 86.6631C366.308 86.5446 366.021 86.4854 365.679 86.4854C365.36 86.4854 365.08 86.54 364.838 86.6494C364.601 86.7588 364.414 86.9023 364.278 87.0801C364.145 87.2578 364.079 87.4492 364.079 87.6543H362.815C362.815 87.39 362.883 87.1279 363.02 86.8682C363.156 86.6084 363.352 86.3737 363.608 86.1641C363.867 85.9499 364.177 85.7812 364.537 85.6582C364.902 85.5306 365.308 85.4668 365.754 85.4668C366.292 85.4668 366.766 85.5579 367.176 85.7402C367.591 85.9225 367.914 86.1982 368.147 86.5674C368.384 86.932 368.502 87.39 368.502 87.9414V91.3867C368.502 91.6328 368.523 91.8949 368.564 92.1729C368.609 92.4508 368.675 92.6901 368.762 92.8906V93H367.443C367.379 92.8542 367.329 92.6605 367.292 92.4189C367.256 92.1729 367.238 91.945 367.238 91.7354ZM367.456 88.5156L367.47 89.4043H366.192C365.832 89.4043 365.51 89.4339 365.228 89.4932C364.945 89.5479 364.708 89.6322 364.517 89.7461C364.325 89.86 364.18 90.0036 364.079 90.1768C363.979 90.3454 363.929 90.5436 363.929 90.7715C363.929 91.0039 363.981 91.2158 364.086 91.4072C364.191 91.5986 364.348 91.7513 364.558 91.8652C364.772 91.9746 365.034 92.0293 365.344 92.0293C365.731 92.0293 366.073 91.9473 366.369 91.7832C366.666 91.6191 366.9 91.4186 367.073 91.1816C367.251 90.9447 367.347 90.7145 367.361 90.4912L367.901 91.0996C367.869 91.291 367.782 91.5029 367.641 91.7354C367.5 91.9678 367.31 92.1911 367.073 92.4053C366.841 92.6149 366.563 92.7904 366.24 92.9316C365.92 93.0684 365.56 93.1367 365.159 93.1367C364.658 93.1367 364.218 93.0387 363.84 92.8428C363.466 92.6468 363.175 92.3848 362.965 92.0566C362.76 91.724 362.657 91.3525 362.657 90.9424C362.657 90.5459 362.735 90.1973 362.89 89.8965C363.045 89.5911 363.268 89.3382 363.56 89.1377C363.851 88.9326 364.202 88.7777 364.613 88.6729C365.023 88.568 365.481 88.5156 365.987 88.5156H367.456ZM373.588 85.6035V86.5742H369.589V85.6035H373.588ZM370.943 83.8057H372.207V91.168C372.207 91.4186 372.246 91.6077 372.323 91.7354C372.401 91.863 372.501 91.9473 372.624 91.9883C372.747 92.0293 372.879 92.0498 373.021 92.0498C373.126 92.0498 373.235 92.0407 373.349 92.0225C373.467 91.9997 373.556 91.9814 373.615 91.9678L373.622 93C373.522 93.0319 373.39 93.0615 373.226 93.0889C373.066 93.1208 372.873 93.1367 372.645 93.1367C372.335 93.1367 372.05 93.0752 371.79 92.9521C371.531 92.8291 371.323 92.624 371.168 92.3369C371.018 92.0452 370.943 91.6533 370.943 91.1611V83.8057ZM378.031 92.0977C378.332 92.0977 378.61 92.0361 378.865 91.9131C379.121 91.79 379.33 91.6214 379.494 91.4072C379.658 91.1885 379.752 90.9401 379.775 90.6621H380.978C380.955 91.0996 380.807 91.5075 380.533 91.8857C380.265 92.2594 379.911 92.5625 379.474 92.7949C379.036 93.0228 378.556 93.1367 378.031 93.1367C377.476 93.1367 376.99 93.0387 376.575 92.8428C376.165 92.6468 375.823 92.3779 375.55 92.0361C375.281 91.6943 375.078 91.3024 374.942 90.8604C374.809 90.4137 374.743 89.9421 374.743 89.4453V89.1582C374.743 88.6615 374.809 88.1921 374.942 87.75C375.078 87.3034 375.281 86.9092 375.55 86.5674C375.823 86.2256 376.165 85.9567 376.575 85.7607C376.99 85.5648 377.476 85.4668 378.031 85.4668C378.61 85.4668 379.116 85.5853 379.549 85.8223C379.982 86.0547 380.322 86.3737 380.568 86.7793C380.818 87.1803 380.955 87.6361 380.978 88.1465H379.775C379.752 87.8411 379.665 87.5654 379.515 87.3193C379.369 87.0732 379.169 86.8773 378.913 86.7314C378.663 86.5811 378.369 86.5059 378.031 86.5059C377.644 86.5059 377.318 86.5833 377.054 86.7383C376.794 86.8887 376.587 87.0938 376.432 87.3535C376.281 87.6087 376.172 87.8936 376.104 88.208C376.04 88.5179 376.008 88.8346 376.008 89.1582V89.4453C376.008 89.7689 376.04 90.0879 376.104 90.4023C376.168 90.7168 376.275 91.0016 376.425 91.2568C376.58 91.512 376.787 91.7171 377.047 91.8721C377.311 92.0225 377.64 92.0977 378.031 92.0977ZM383.664 82.5V93H382.4V82.5H383.664ZM383.364 89.0215L382.837 89.001C382.842 88.4951 382.917 88.028 383.063 87.5996C383.209 87.1667 383.414 86.7907 383.678 86.4717C383.942 86.1527 384.257 85.9066 384.621 85.7334C384.99 85.5557 385.398 85.4668 385.845 85.4668C386.21 85.4668 386.538 85.5169 386.829 85.6172C387.121 85.7129 387.369 85.8678 387.574 86.082C387.784 86.2962 387.944 86.5742 388.053 86.916C388.162 87.2533 388.217 87.6657 388.217 88.1533V93H386.946V88.1396C386.946 87.7523 386.889 87.4424 386.775 87.21C386.661 86.973 386.494 86.8021 386.276 86.6973C386.057 86.5879 385.788 86.5332 385.469 86.5332C385.155 86.5332 384.867 86.5993 384.608 86.7314C384.352 86.8636 384.131 87.0459 383.945 87.2783C383.762 87.5107 383.619 87.7773 383.514 88.0781C383.414 88.3743 383.364 88.6888 383.364 89.0215ZM392.859 90.1973H391.587C391.592 89.7598 391.63 89.402 391.703 89.124C391.781 88.8415 391.906 88.584 392.079 88.3516C392.253 88.1191 392.483 87.8548 392.77 87.5586C392.979 87.3444 393.171 87.1439 393.344 86.957C393.522 86.7656 393.665 86.5605 393.775 86.3418C393.884 86.1185 393.939 85.8519 393.939 85.542C393.939 85.2275 393.882 84.9564 393.768 84.7285C393.658 84.5007 393.494 84.3252 393.276 84.2021C393.061 84.0791 392.795 84.0176 392.476 84.0176C392.212 84.0176 391.961 84.0654 391.724 84.1611C391.487 84.2568 391.295 84.4049 391.15 84.6055C391.004 84.8014 390.929 85.0589 390.924 85.3779H389.659C389.669 84.863 389.796 84.4209 390.042 84.0518C390.293 83.6826 390.63 83.4001 391.054 83.2041C391.478 83.0081 391.952 82.9102 392.476 82.9102C393.055 82.9102 393.547 83.015 393.952 83.2246C394.363 83.4342 394.675 83.735 394.889 84.127C395.103 84.5143 395.21 84.9746 395.21 85.5078C395.21 85.918 395.126 86.2962 394.957 86.6426C394.793 86.9844 394.581 87.3057 394.322 87.6064C394.062 87.9072 393.786 88.1943 393.494 88.4678C393.244 88.7002 393.075 88.9622 392.989 89.2539C392.902 89.5456 392.859 89.86 392.859 90.1973ZM391.532 92.3643C391.532 92.1592 391.596 91.986 391.724 91.8447C391.851 91.7035 392.036 91.6328 392.278 91.6328C392.524 91.6328 392.711 91.7035 392.838 91.8447C392.966 91.986 393.03 92.1592 393.03 92.3643C393.03 92.5602 392.966 92.7288 392.838 92.8701C392.711 93.0114 392.524 93.082 392.278 93.082C392.036 93.082 391.851 93.0114 391.724 92.8701C391.596 92.7288 391.532 92.5602 391.532 92.3643ZM398.977 91.8584L401 85.6035H402.292L399.633 93H398.785L398.977 91.8584ZM397.288 85.6035L399.373 91.8926L399.517 93H398.669L395.99 85.6035H397.288ZM409.285 86.335V87.4355H403.584V86.335H409.285ZM409.285 89.1719V90.2725H403.584V89.1719H409.285ZM412.457 86.7656V93H411.193V85.6035H412.423L412.457 86.7656ZM414.768 85.5625L414.761 86.7383C414.656 86.7155 414.556 86.7018 414.46 86.6973C414.369 86.6882 414.264 86.6836 414.146 86.6836C413.854 86.6836 413.597 86.7292 413.373 86.8203C413.15 86.9115 412.961 87.0391 412.806 87.2031C412.651 87.3672 412.528 87.5632 412.437 87.791C412.35 88.0143 412.293 88.2604 412.266 88.5293L411.91 88.7344C411.91 88.2878 411.954 87.8685 412.04 87.4766C412.131 87.0846 412.27 86.7383 412.457 86.4375C412.644 86.1322 412.881 85.8952 413.168 85.7266C413.46 85.5534 413.806 85.4668 414.207 85.4668C414.298 85.4668 414.403 85.4782 414.522 85.501C414.64 85.5192 414.722 85.5397 414.768 85.5625ZM419.956 82.9922V93H418.692V84.5713L416.142 85.501V84.3594L419.758 82.9922H419.956ZM425.323 83.0469V93H424.003V83.0469H425.323ZM429.492 87.5244V88.6045H425.035V87.5244H429.492ZM430.169 83.0469V84.127H425.035V83.0469H430.169ZM432.405 85.6035L434.025 88.2969L435.665 85.6035H437.149L434.729 89.2539L437.224 93H435.761L434.052 90.2246L432.343 93H430.873L433.362 89.2539L430.948 85.6035H432.405ZM444.607 87.2305V88.748C444.607 89.5638 444.534 90.252 444.388 90.8125C444.242 91.373 444.032 91.8242 443.759 92.166C443.486 92.5078 443.155 92.7562 442.768 92.9111C442.385 93.0615 441.952 93.1367 441.469 93.1367C441.086 93.1367 440.733 93.0889 440.409 92.9932C440.086 92.8975 439.794 92.7448 439.534 92.5352C439.279 92.321 439.06 92.043 438.878 91.7012C438.696 91.3594 438.557 90.9447 438.461 90.457C438.365 89.9694 438.318 89.3997 438.318 88.748V87.2305C438.318 86.4147 438.391 85.7311 438.536 85.1797C438.687 84.6283 438.899 84.1862 439.172 83.8535C439.446 83.5163 439.774 83.2747 440.156 83.1289C440.544 82.9831 440.977 82.9102 441.455 82.9102C441.843 82.9102 442.198 82.958 442.522 83.0537C442.85 83.1449 443.142 83.293 443.397 83.498C443.652 83.6986 443.868 83.9674 444.046 84.3047C444.228 84.6374 444.367 85.0452 444.463 85.5283C444.559 86.0114 444.607 86.5788 444.607 87.2305ZM443.335 88.9531V87.0186C443.335 86.5719 443.308 86.18 443.253 85.8428C443.203 85.501 443.128 85.2093 443.028 84.9678C442.927 84.7262 442.8 84.5303 442.645 84.3799C442.494 84.2295 442.319 84.1201 442.118 84.0518C441.922 83.9788 441.701 83.9424 441.455 83.9424C441.155 83.9424 440.888 83.9993 440.656 84.1133C440.423 84.2227 440.227 84.3981 440.068 84.6396C439.913 84.8812 439.794 85.1979 439.712 85.5898C439.63 85.9818 439.589 86.458 439.589 87.0186V88.9531C439.589 89.3997 439.614 89.7939 439.664 90.1357C439.719 90.4775 439.799 90.7738 439.904 91.0244C440.008 91.2705 440.136 91.4733 440.286 91.6328C440.437 91.7923 440.61 91.9108 440.806 91.9883C441.006 92.0612 441.227 92.0977 441.469 92.0977C441.779 92.0977 442.05 92.0384 442.282 91.9199C442.515 91.8014 442.709 91.6169 442.864 91.3662C443.023 91.111 443.142 90.7852 443.219 90.3887C443.296 89.9876 443.335 89.5091 443.335 88.9531ZM449.467 85.6035V86.5742H445.468V85.6035H449.467ZM446.822 83.8057H448.086V91.168C448.086 91.4186 448.125 91.6077 448.202 91.7354C448.28 91.863 448.38 91.9473 448.503 91.9883C448.626 92.0293 448.758 92.0498 448.9 92.0498C449.004 92.0498 449.114 92.0407 449.228 92.0225C449.346 91.9997 449.435 91.9814 449.494 91.9678L449.501 93C449.401 93.0319 449.269 93.0615 449.105 93.0889C448.945 93.1208 448.752 93.1367 448.524 93.1367C448.214 93.1367 447.929 93.0752 447.669 92.9521C447.409 92.8291 447.202 92.624 447.047 92.3369C446.897 92.0452 446.822 91.6533 446.822 91.1611V83.8057ZM455.606 95.8438V87.0254L455.715 85.6035H456.877V95.8438H455.606ZM450.636 89.3838V89.2402C450.636 88.6751 450.702 88.1624 450.834 87.7021C450.966 87.2373 451.16 86.8385 451.415 86.5059C451.67 86.1732 451.978 85.918 452.338 85.7402C452.703 85.5579 453.117 85.4668 453.582 85.4668C454.047 85.4668 454.455 85.5488 454.806 85.7129C455.161 85.8724 455.462 86.1071 455.708 86.417C455.959 86.7223 456.157 87.0915 456.303 87.5244C456.449 87.9574 456.549 88.4473 456.604 88.9941V89.623C456.554 90.1654 456.456 90.653 456.31 91.0859C456.164 91.5189 455.966 91.888 455.715 92.1934C455.469 92.4987 455.166 92.7334 454.806 92.8975C454.45 93.057 454.038 93.1367 453.569 93.1367C453.113 93.1367 452.703 93.0433 452.338 92.8564C451.978 92.6696 451.67 92.4076 451.415 92.0703C451.165 91.7331 450.971 91.3366 450.834 90.8809C450.702 90.4206 450.636 89.9215 450.636 89.3838ZM451.907 89.2402V89.3838C451.907 89.7529 451.946 90.1016 452.024 90.4297C452.101 90.7533 452.22 91.0404 452.379 91.291C452.543 91.5417 452.748 91.7399 452.994 91.8857C453.245 92.027 453.541 92.0977 453.883 92.0977C454.302 92.0977 454.651 92.0065 454.929 91.8242C455.212 91.6419 455.437 91.4027 455.606 91.1064C455.774 90.8057 455.904 90.4844 455.995 90.1426V88.4951C455.945 88.2445 455.865 88.0007 455.756 87.7637C455.651 87.5267 455.515 87.3148 455.346 87.1279C455.177 86.9365 454.972 86.7861 454.731 86.6768C454.494 86.5628 454.216 86.5059 453.897 86.5059C453.55 86.5059 453.252 86.5788 453.001 86.7246C452.751 86.8704 452.543 87.071 452.379 87.3262C452.22 87.5768 452.101 87.8662 452.024 88.1943C451.946 88.5225 451.907 88.8711 451.907 89.2402ZM460.418 83.0469V93H459.099V83.0469H460.418ZM466.427 83.0469L462.291 87.6885L459.967 90.1016L459.748 88.6934L461.498 86.7656L464.841 83.0469H466.427ZM465.156 93L461.471 88.1465L462.257 87.1006L466.728 93H465.156ZM469.161 88.2627L468.15 88.0029L468.649 83.0469H473.755V84.2158H469.722L469.421 86.9229C469.603 86.818 469.834 86.7201 470.112 86.6289C470.394 86.5378 470.718 86.4922 471.082 86.4922C471.543 86.4922 471.955 86.5719 472.32 86.7314C472.684 86.8864 472.994 87.1097 473.249 87.4014C473.509 87.693 473.707 88.0439 473.844 88.4541C473.981 88.8643 474.049 89.3223 474.049 89.8281C474.049 90.3066 473.983 90.7464 473.851 91.1475C473.723 91.5485 473.53 91.8994 473.27 92.2002C473.01 92.4964 472.682 92.7266 472.285 92.8906C471.893 93.0547 471.431 93.1367 470.898 93.1367C470.497 93.1367 470.116 93.082 469.756 92.9727C469.401 92.8587 469.082 92.6878 468.799 92.46C468.521 92.2275 468.293 91.9404 468.115 91.5986C467.942 91.2523 467.833 90.8467 467.787 90.3818H468.99C469.045 90.7555 469.155 91.07 469.319 91.3252C469.483 91.5804 469.697 91.7741 469.961 91.9062C470.23 92.0339 470.542 92.0977 470.898 92.0977C471.198 92.0977 471.465 92.0452 471.698 91.9404C471.93 91.8356 472.126 91.6852 472.285 91.4893C472.445 91.2933 472.566 91.0563 472.648 90.7783C472.734 90.5003 472.778 90.1882 472.778 89.8418C472.778 89.5273 472.734 89.2357 472.648 88.9668C472.561 88.6979 472.431 88.4632 472.258 88.2627C472.089 88.0622 471.882 87.9072 471.636 87.7979C471.39 87.6839 471.107 87.627 470.788 87.627C470.365 87.627 470.043 87.6839 469.824 87.7979C469.61 87.9118 469.389 88.0667 469.161 88.2627ZM482.444 91.9268V93H475.703V91.9268H482.444ZM482.225 84.0039L476.018 93H475.204V92.0156L481.405 83.0469H482.225V84.0039ZM481.664 83.0469V84.127H475.293V83.0469H481.664ZM490.558 89.6504V90.6895H483.366V89.9443L487.823 83.0469H488.856L487.748 85.043L484.802 89.6504H490.558ZM489.17 83.0469V93H487.906V83.0469H489.17ZM493.682 87.4766L495.172 86.417C495.459 86.221 495.68 86.0251 495.835 85.8291C495.995 85.6286 496.074 85.3551 496.074 85.0088C496.074 84.7399 495.97 84.4961 495.76 84.2773C495.55 84.054 495.254 83.9424 494.871 83.9424C494.607 83.9424 494.384 84.0039 494.201 84.127C494.019 84.25 493.882 84.4141 493.791 84.6191C493.7 84.8197 493.655 85.0407 493.655 85.2822C493.655 85.4873 493.705 85.6992 493.805 85.918C493.905 86.1367 494.044 86.3646 494.222 86.6016C494.4 86.8385 494.602 87.0892 494.83 87.3535L499.54 93H498.023L494.16 88.3789C493.819 87.9779 493.513 87.611 493.244 87.2783C492.976 86.9411 492.764 86.6152 492.609 86.3008C492.458 85.9863 492.383 85.6605 492.383 85.3232C492.383 84.8037 492.486 84.3662 492.691 84.0107C492.9 83.6507 493.192 83.3773 493.566 83.1904C493.939 83.0036 494.377 82.9102 494.878 82.9102C495.366 82.9102 495.785 83.0081 496.136 83.2041C496.491 83.3955 496.765 83.6507 496.956 83.9697C497.148 84.2842 497.243 84.6305 497.243 85.0088C497.243 85.3278 497.186 85.6149 497.073 85.8701C496.959 86.1208 496.799 86.3509 496.594 86.5605C496.393 86.7702 496.159 86.9753 495.89 87.1758L493.914 88.6455C493.586 88.887 493.347 89.1172 493.197 89.3359C493.046 89.5547 492.948 89.7484 492.903 89.917C492.862 90.0856 492.841 90.2201 492.841 90.3203C492.841 90.6439 492.912 90.9401 493.053 91.209C493.194 91.4779 493.408 91.6943 493.696 91.8584C493.987 92.0179 494.352 92.0977 494.789 92.0977C495.172 92.0977 495.544 92.0111 495.904 91.8379C496.268 91.6602 496.594 91.4095 496.881 91.0859C497.168 90.7578 497.396 90.3682 497.565 89.917C497.738 89.4613 497.824 88.9577 497.824 88.4062H498.959C498.959 88.8574 498.916 89.2835 498.829 89.6846C498.743 90.0856 498.608 90.4593 498.426 90.8057C498.248 91.1475 498.02 91.4596 497.742 91.7422C497.701 91.7832 497.67 91.8311 497.647 91.8857C497.624 91.9404 497.592 91.9883 497.551 92.0293C497.209 92.3984 496.788 92.6764 496.286 92.8633C495.79 93.0456 495.291 93.1367 494.789 93.1367C494.128 93.1367 493.557 93.016 493.073 92.7744C492.595 92.5329 492.226 92.2002 491.966 91.7764C491.706 91.3525 491.576 90.8672 491.576 90.3203C491.576 89.901 491.665 89.5319 491.843 89.2129C492.025 88.8939 492.274 88.5954 492.588 88.3174C492.907 88.0394 493.272 87.7591 493.682 87.4766ZM501.817 87.0254V95.8438H500.545V85.6035H501.707L501.817 87.0254ZM506.8 89.2402V89.3838C506.8 89.9215 506.736 90.4206 506.609 90.8809C506.481 91.3366 506.294 91.7331 506.048 92.0703C505.807 92.4076 505.508 92.6696 505.153 92.8564C504.797 93.0433 504.389 93.1367 503.929 93.1367C503.46 93.1367 503.045 93.0592 502.685 92.9043C502.325 92.7493 502.019 92.5238 501.769 92.2275C501.518 91.9313 501.318 91.5758 501.167 91.1611C501.021 90.7464 500.921 90.2793 500.866 89.7598V88.9941C500.921 88.4473 501.024 87.9574 501.174 87.5244C501.324 87.0915 501.523 86.7223 501.769 86.417C502.019 86.1071 502.323 85.8724 502.678 85.7129C503.033 85.5488 503.444 85.4668 503.908 85.4668C504.373 85.4668 504.786 85.5579 505.146 85.7402C505.506 85.918 505.809 86.1732 506.055 86.5059C506.301 86.8385 506.486 87.2373 506.609 87.7021C506.736 88.1624 506.8 88.6751 506.8 89.2402ZM505.529 89.3838V89.2402C505.529 88.8711 505.49 88.5247 505.412 88.2012C505.335 87.873 505.214 87.5859 505.05 87.3398C504.891 87.0892 504.685 86.8932 504.435 86.752C504.184 86.6061 503.886 86.5332 503.539 86.5332C503.22 86.5332 502.942 86.5879 502.705 86.6973C502.473 86.8066 502.275 86.9548 502.111 87.1416C501.947 87.3239 501.812 87.5335 501.707 87.7705C501.607 88.0029 501.532 88.2445 501.482 88.4951V90.2656C501.573 90.5846 501.7 90.8854 501.865 91.168C502.029 91.446 502.247 91.6715 502.521 91.8447C502.794 92.0133 503.138 92.0977 503.553 92.0977C503.895 92.0977 504.189 92.027 504.435 91.8857C504.685 91.7399 504.891 91.5417 505.05 91.291C505.214 91.0404 505.335 90.7533 505.412 90.4297C505.49 90.1016 505.529 89.7529 505.529 89.3838ZM509.678 87.0254V95.8438H508.406V85.6035H509.569L509.678 87.0254ZM514.661 89.2402V89.3838C514.661 89.9215 514.598 90.4206 514.47 90.8809C514.342 91.3366 514.156 91.7331 513.909 92.0703C513.668 92.4076 513.369 92.6696 513.014 92.8564C512.658 93.0433 512.251 93.1367 511.79 93.1367C511.321 93.1367 510.906 93.0592 510.546 92.9043C510.186 92.7493 509.881 92.5238 509.63 92.2275C509.379 91.9313 509.179 91.5758 509.029 91.1611C508.883 90.7464 508.782 90.2793 508.728 89.7598V88.9941C508.782 88.4473 508.885 87.9574 509.035 87.5244C509.186 87.0915 509.384 86.7223 509.63 86.417C509.881 86.1071 510.184 85.8724 510.539 85.7129C510.895 85.5488 511.305 85.4668 511.77 85.4668C512.235 85.4668 512.647 85.5579 513.007 85.7402C513.367 85.918 513.67 86.1732 513.916 86.5059C514.162 86.8385 514.347 87.2373 514.47 87.7021C514.598 88.1624 514.661 88.6751 514.661 89.2402ZM513.39 89.3838V89.2402C513.39 88.8711 513.351 88.5247 513.274 88.2012C513.196 87.873 513.075 87.5859 512.911 87.3398C512.752 87.0892 512.547 86.8932 512.296 86.752C512.045 86.6061 511.747 86.5332 511.401 86.5332C511.082 86.5332 510.804 86.5879 510.567 86.6973C510.334 86.8066 510.136 86.9548 509.972 87.1416C509.808 87.3239 509.673 87.5335 509.569 87.7705C509.468 88.0029 509.393 88.2445 509.343 88.4951V90.2656C509.434 90.5846 509.562 90.8854 509.726 91.168C509.89 91.446 510.109 91.6715 510.382 91.8447C510.656 92.0133 511 92.0977 511.414 92.0977C511.756 92.0977 512.05 92.027 512.296 91.8857C512.547 91.7399 512.752 91.5417 512.911 91.291C513.075 91.0404 513.196 90.7533 513.274 90.4297C513.351 90.1016 513.39 89.7529 513.39 89.3838ZM522.051 86.335V87.4355H516.35V86.335H522.051ZM522.051 89.1719V90.2725H516.35V89.1719H522.051Z" fill="#DADCE0"/>
<path d="M567.621 86L569.162 82.5L570.702 86L575.324 86.5L572.243 89.5L572.756 94L569.162 91.5L565.567 94L566.081 89.5L563 86.5L567.621 86Z" stroke="#F1F3F4" stroke-width="1.5"/>
<path d="M169.911 86V84C169.911 84 169.911 82 171.899 82C173.887 82 173.887 84 173.887 84V86" stroke="#C4C4C4"/>
<rect x="167.923" y="86" width="7.95242" height="7" rx="1" fill="#DADCE0"/>
<rect x="45" y="105" width="673" height="35" fill="#35363A"/>
<rect x="61" y="115" width="3" height="3" fill="#E44A3E"/>
<rect x="61" y="120" width="3" height="3" fill="#529A60"/>
<rect x="61" y="125" width="3" height="3" fill="#529A60"/>
<rect x="66" y="115" width="3" height="3" fill="#E44A3E"/>
<rect x="66" y="120" width="3" height="3" fill="#3F8CEC"/>
<rect x="66" y="125" width="3" height="3" fill="#E6A439"/>
<rect x="71" y="115" width="3" height="3" fill="#E44A3E"/>
<rect x="71" y="120" width="3" height="3" fill="#E6A439"/>
<rect x="71" y="125" width="3" height="3" fill="#E6A439"/>
<path d="M88.7012 123.773H85.127L84.3242 126H83.1641L86.4219 117.469H87.4062L90.6699 126H89.5156L88.7012 123.773ZM85.4668 122.848H88.3672L86.9141 118.857L85.4668 122.848ZM97.0039 122.9C97.0039 123.865 96.7832 124.643 96.3418 125.232C95.9004 125.822 95.3027 126.117 94.5488 126.117C93.7793 126.117 93.1738 125.873 92.7324 125.385V128.438H91.6484V119.66H92.6387L92.6914 120.363C93.1328 119.816 93.7461 119.543 94.5312 119.543C95.293 119.543 95.8945 119.83 96.3359 120.404C96.7812 120.979 97.0039 121.777 97.0039 122.801V122.9ZM95.9199 122.777C95.9199 122.062 95.7676 121.498 95.4629 121.084C95.1582 120.67 94.7402 120.463 94.209 120.463C93.5527 120.463 93.0605 120.754 92.7324 121.336V124.365C93.0566 124.943 93.5527 125.232 94.2207 125.232C94.7402 125.232 95.1523 125.027 95.457 124.617C95.7656 124.203 95.9199 123.59 95.9199 122.777ZM103.742 122.9C103.742 123.865 103.521 124.643 103.08 125.232C102.639 125.822 102.041 126.117 101.287 126.117C100.518 126.117 99.9121 125.873 99.4707 125.385V128.438H98.3867V119.66H99.377L99.4297 120.363C99.8711 119.816 100.484 119.543 101.27 119.543C102.031 119.543 102.633 119.83 103.074 120.404C103.52 120.979 103.742 121.777 103.742 122.801V122.9ZM102.658 122.777C102.658 122.062 102.506 121.498 102.201 121.084C101.896 120.67 101.479 120.463 100.947 120.463C100.291 120.463 99.7988 120.754 99.4707 121.336V124.365C99.7949 124.943 100.291 125.232 100.959 125.232C101.479 125.232 101.891 125.027 102.195 124.617C102.504 124.203 102.658 123.59 102.658 122.777ZM108.816 124.318C108.816 124.025 108.705 123.799 108.482 123.639C108.264 123.475 107.879 123.334 107.328 123.217C106.781 123.1 106.346 122.959 106.021 122.795C105.701 122.631 105.463 122.436 105.307 122.209C105.154 121.982 105.078 121.713 105.078 121.4C105.078 120.881 105.297 120.441 105.734 120.082C106.176 119.723 106.738 119.543 107.422 119.543C108.141 119.543 108.723 119.729 109.168 120.1C109.617 120.471 109.842 120.945 109.842 121.523H108.752C108.752 121.227 108.625 120.971 108.371 120.756C108.121 120.541 107.805 120.434 107.422 120.434C107.027 120.434 106.719 120.52 106.496 120.691C106.273 120.863 106.162 121.088 106.162 121.365C106.162 121.627 106.266 121.824 106.473 121.957C106.68 122.09 107.053 122.217 107.592 122.338C108.135 122.459 108.574 122.604 108.91 122.771C109.246 122.939 109.494 123.143 109.654 123.381C109.818 123.615 109.9 123.902 109.9 124.242C109.9 124.809 109.674 125.264 109.221 125.607C108.768 125.947 108.18 126.117 107.457 126.117C106.949 126.117 106.5 126.027 106.109 125.848C105.719 125.668 105.412 125.418 105.189 125.098C104.971 124.773 104.861 124.424 104.861 124.049H105.945C105.965 124.412 106.109 124.701 106.379 124.916C106.652 125.127 107.012 125.232 107.457 125.232C107.867 125.232 108.195 125.15 108.441 124.986C108.691 124.818 108.816 124.596 108.816 124.318Z" fill="white"/>
<g clip-path="url(#clip5_4_416)">
<rect x="126" y="114" width="16" height="16" fill="white"/>
<g clip-path="url(#clip6_4_416)">
<path d="M152.99 126V117.469H155.779C156.705 117.469 157.4 117.66 157.865 118.043C158.334 118.426 158.568 118.992 158.568 119.742C158.568 120.141 158.455 120.494 158.229 120.803C158.002 121.107 157.693 121.344 157.303 121.512C157.764 121.641 158.127 121.887 158.393 122.25C158.662 122.609 158.797 123.039 158.797 123.539C158.797 124.305 158.549 124.906 158.053 125.344C157.557 125.781 156.855 126 155.949 126H152.99ZM154.115 122.01V125.08H155.973C156.496 125.08 156.908 124.945 157.209 124.676C157.514 124.402 157.666 124.027 157.666 123.551C157.666 122.523 157.107 122.01 155.99 122.01H154.115ZM154.115 121.107H155.814C156.307 121.107 156.699 120.984 156.992 120.738C157.289 120.492 157.438 120.158 157.438 119.736C157.438 119.268 157.301 118.928 157.027 118.717C156.754 118.502 156.338 118.395 155.779 118.395H154.115V121.107ZM160.01 122.771C160.01 122.15 160.131 121.592 160.373 121.096C160.619 120.6 160.959 120.217 161.393 119.947C161.83 119.678 162.328 119.543 162.887 119.543C163.75 119.543 164.447 119.842 164.979 120.439C165.514 121.037 165.781 121.832 165.781 122.824V122.9C165.781 123.518 165.662 124.072 165.424 124.564C165.189 125.053 164.852 125.434 164.41 125.707C163.973 125.98 163.469 126.117 162.898 126.117C162.039 126.117 161.342 125.818 160.807 125.221C160.275 124.623 160.01 123.832 160.01 122.848V122.771ZM161.1 122.9C161.1 123.604 161.262 124.168 161.586 124.594C161.914 125.02 162.352 125.232 162.898 125.232C163.449 125.232 163.887 125.018 164.211 124.588C164.535 124.154 164.697 123.549 164.697 122.771C164.697 122.076 164.531 121.514 164.199 121.084C163.871 120.65 163.434 120.434 162.887 120.434C162.352 120.434 161.92 120.646 161.592 121.072C161.264 121.498 161.1 122.107 161.1 122.9ZM166.854 122.771C166.854 122.15 166.975 121.592 167.217 121.096C167.463 120.6 167.803 120.217 168.236 119.947C168.674 119.678 169.172 119.543 169.73 119.543C170.594 119.543 171.291 119.842 171.822 120.439C172.357 121.037 172.625 121.832 172.625 122.824V122.9C172.625 123.518 172.506 124.072 172.268 124.564C172.033 125.053 171.695 125.434 171.254 125.707C170.816 125.98 170.312 126.117 169.742 126.117C168.883 126.117 168.186 125.818 167.65 125.221C167.119 124.623 166.854 123.832 166.854 122.848V122.771ZM167.943 122.9C167.943 123.604 168.105 124.168 168.43 124.594C168.758 125.02 169.195 125.232 169.742 125.232C170.293 125.232 170.73 125.018 171.055 124.588C171.379 124.154 171.541 123.549 171.541 122.771C171.541 122.076 171.375 121.514 171.043 121.084C170.715 120.65 170.277 120.434 169.73 120.434C169.195 120.434 168.764 120.646 168.436 121.072C168.107 121.498 167.943 122.107 167.943 122.9ZM175.754 123.064L175.074 123.773V126H173.99V117H175.074V122.443L175.654 121.746L177.629 119.66H178.947L176.48 122.309L179.234 126H177.963L175.754 123.064ZM181.086 119.66L181.115 120.363C181.58 119.816 182.207 119.543 182.996 119.543C183.883 119.543 184.486 119.883 184.807 120.562C185.018 120.258 185.291 120.012 185.627 119.824C185.967 119.637 186.367 119.543 186.828 119.543C188.219 119.543 188.926 120.279 188.949 121.752V126H187.865V121.816C187.865 121.363 187.762 121.025 187.555 120.803C187.348 120.576 187 120.463 186.512 120.463C186.109 120.463 185.775 120.584 185.51 120.826C185.244 121.064 185.09 121.387 185.047 121.793V126H183.957V121.846C183.957 120.924 183.506 120.463 182.604 120.463C181.893 120.463 181.406 120.766 181.145 121.371V126H180.061V119.66H181.086ZM194.504 126C194.441 125.875 194.391 125.652 194.352 125.332C193.848 125.855 193.246 126.117 192.547 126.117C191.922 126.117 191.408 125.941 191.006 125.59C190.607 125.234 190.408 124.785 190.408 124.242C190.408 123.582 190.658 123.07 191.158 122.707C191.662 122.34 192.369 122.156 193.279 122.156H194.334V121.658C194.334 121.279 194.221 120.979 193.994 120.756C193.768 120.529 193.434 120.416 192.992 120.416C192.605 120.416 192.281 120.514 192.02 120.709C191.758 120.904 191.627 121.141 191.627 121.418H190.537C190.537 121.102 190.648 120.797 190.871 120.504C191.098 120.207 191.402 119.973 191.785 119.801C192.172 119.629 192.596 119.543 193.057 119.543C193.787 119.543 194.359 119.727 194.773 120.094C195.188 120.457 195.402 120.959 195.418 121.6V124.518C195.418 125.1 195.492 125.562 195.641 125.906V126H194.504ZM192.705 125.174C193.045 125.174 193.367 125.086 193.672 124.91C193.977 124.734 194.197 124.506 194.334 124.225V122.924H193.484C192.156 122.924 191.492 123.312 191.492 124.09C191.492 124.43 191.605 124.695 191.832 124.887C192.059 125.078 192.35 125.174 192.705 125.174ZM200.182 120.633C200.018 120.605 199.84 120.592 199.648 120.592C198.938 120.592 198.455 120.895 198.201 121.5V126H197.117V119.66H198.172L198.189 120.393C198.545 119.826 199.049 119.543 199.701 119.543C199.912 119.543 200.072 119.57 200.182 119.625V120.633ZM202.953 123.064L202.273 123.773V126H201.189V117H202.273V122.443L202.854 121.746L204.828 119.66H206.146L203.68 122.309L206.434 126H205.162L202.953 123.064Z" fill="#DADCE0"/>
</g>
<rect x="217" y="114" width="16" height="16" fill="white"/>
<g clip-path="url(#clip7_4_416)">
<path d="M243.99 126V117.469H246.779C247.705 117.469 248.4 117.66 248.865 118.043C249.334 118.426 249.568 118.992 249.568 119.742C249.568 120.141 249.455 120.494 249.229 120.803C249.002 121.107 248.693 121.344 248.303 121.512C248.764 121.641 249.127 121.887 249.393 122.25C249.662 122.609 249.797 123.039 249.797 123.539C249.797 124.305 249.549 124.906 249.053 125.344C248.557 125.781 247.855 126 246.949 126H243.99ZM245.115 122.01V125.08H246.973C247.496 125.08 247.908 124.945 248.209 124.676C248.514 124.402 248.666 124.027 248.666 123.551C248.666 122.523 248.107 122.01 246.99 122.01H245.115ZM245.115 121.107H246.814C247.307 121.107 247.699 120.984 247.992 120.738C248.289 120.492 248.438 120.158 248.438 119.736C248.438 119.268 248.301 118.928 248.027 118.717C247.754 118.502 247.338 118.395 246.779 118.395H245.115V121.107ZM251.01 122.771C251.01 122.15 251.131 121.592 251.373 121.096C251.619 120.6 251.959 120.217 252.393 119.947C252.83 119.678 253.328 119.543 253.887 119.543C254.75 119.543 255.447 119.842 255.979 120.439C256.514 121.037 256.781 121.832 256.781 122.824V122.9C256.781 123.518 256.662 124.072 256.424 124.564C256.189 125.053 255.852 125.434 255.41 125.707C254.973 125.98 254.469 126.117 253.898 126.117C253.039 126.117 252.342 125.818 251.807 125.221C251.275 124.623 251.01 123.832 251.01 122.848V122.771ZM252.1 122.9C252.1 123.604 252.262 124.168 252.586 124.594C252.914 125.02 253.352 125.232 253.898 125.232C254.449 125.232 254.887 125.018 255.211 124.588C255.535 124.154 255.697 123.549 255.697 122.771C255.697 122.076 255.531 121.514 255.199 121.084C254.871 120.65 254.434 120.434 253.887 120.434C253.352 120.434 252.92 120.646 252.592 121.072C252.264 121.498 252.1 122.107 252.1 122.9ZM257.854 122.771C257.854 122.15 257.975 121.592 258.217 121.096C258.463 120.6 258.803 120.217 259.236 119.947C259.674 119.678 260.172 119.543 260.73 119.543C261.594 119.543 262.291 119.842 262.822 120.439C263.357 121.037 263.625 121.832 263.625 122.824V122.9C263.625 123.518 263.506 124.072 263.268 124.564C263.033 125.053 262.695 125.434 262.254 125.707C261.816 125.98 261.312 126.117 260.742 126.117C259.883 126.117 259.186 125.818 258.65 125.221C258.119 124.623 257.854 123.832 257.854 122.848V122.771ZM258.943 122.9C258.943 123.604 259.105 124.168 259.43 124.594C259.758 125.02 260.195 125.232 260.742 125.232C261.293 125.232 261.73 125.018 262.055 124.588C262.379 124.154 262.541 123.549 262.541 122.771C262.541 122.076 262.375 121.514 262.043 121.084C261.715 120.65 261.277 120.434 260.73 120.434C260.195 120.434 259.764 120.646 259.436 121.072C259.107 121.498 258.943 122.107 258.943 122.9ZM266.754 123.064L266.074 123.773V126H264.99V117H266.074V122.443L266.654 121.746L268.629 119.66H269.947L267.48 122.309L270.234 126H268.963L266.754 123.064ZM272.086 119.66L272.115 120.363C272.58 119.816 273.207 119.543 273.996 119.543C274.883 119.543 275.486 119.883 275.807 120.562C276.018 120.258 276.291 120.012 276.627 119.824C276.967 119.637 277.367 119.543 277.828 119.543C279.219 119.543 279.926 120.279 279.949 121.752V126H278.865V121.816C278.865 121.363 278.762 121.025 278.555 120.803C278.348 120.576 278 120.463 277.512 120.463C277.109 120.463 276.775 120.584 276.51 120.826C276.244 121.064 276.09 121.387 276.047 121.793V126H274.957V121.846C274.957 120.924 274.506 120.463 273.604 120.463C272.893 120.463 272.406 120.766 272.145 121.371V126H271.061V119.66H272.086ZM285.504 126C285.441 125.875 285.391 125.652 285.352 125.332C284.848 125.855 284.246 126.117 283.547 126.117C282.922 126.117 282.408 125.941 282.006 125.59C281.607 125.234 281.408 124.785 281.408 124.242C281.408 123.582 281.658 123.07 282.158 122.707C282.662 122.34 283.369 122.156 284.279 122.156H285.334V121.658C285.334 121.279 285.221 120.979 284.994 120.756C284.768 120.529 284.434 120.416 283.992 120.416C283.605 120.416 283.281 120.514 283.02 120.709C282.758 120.904 282.627 121.141 282.627 121.418H281.537C281.537 121.102 281.648 120.797 281.871 120.504C282.098 120.207 282.402 119.973 282.785 119.801C283.172 119.629 283.596 119.543 284.057 119.543C284.787 119.543 285.359 119.727 285.773 120.094C286.188 120.457 286.402 120.959 286.418 121.6V124.518C286.418 125.1 286.492 125.562 286.641 125.906V126H285.504ZM283.705 125.174C284.045 125.174 284.367 125.086 284.672 124.91C284.977 124.734 285.197 124.506 285.334 124.225V122.924H284.484C283.156 122.924 282.492 123.312 282.492 124.09C282.492 124.43 282.605 124.695 282.832 124.887C283.059 125.078 283.35 125.174 283.705 125.174ZM291.182 120.633C291.018 120.605 290.84 120.592 290.648 120.592C289.938 120.592 289.455 120.895 289.201 121.5V126H288.117V119.66H289.172L289.189 120.393C289.545 119.826 290.049 119.543 290.701 119.543C290.912 119.543 291.072 119.57 291.182 119.625V120.633ZM293.953 123.064L293.273 123.773V126H292.189V117H293.273V122.443L293.854 121.746L295.828 119.66H297.146L294.68 122.309L297.434 126H296.162L293.953 123.064Z" fill="#DADCE0"/>
</g>
<rect x="308" y="114" width="16" height="16" fill="white"/>
<g clip-path="url(#clip8_4_416)">
<path d="M334.99 126V117.469H337.779C338.705 117.469 339.4 117.66 339.865 118.043C340.334 118.426 340.568 118.992 340.568 119.742C340.568 120.141 340.455 120.494 340.229 120.803C340.002 121.107 339.693 121.344 339.303 121.512C339.764 121.641 340.127 121.887 340.393 122.25C340.662 122.609 340.797 123.039 340.797 123.539C340.797 124.305 340.549 124.906 340.053 125.344C339.557 125.781 338.855 126 337.949 126H334.99ZM336.115 122.01V125.08H337.973C338.496 125.08 338.908 124.945 339.209 124.676C339.514 124.402 339.666 124.027 339.666 123.551C339.666 122.523 339.107 122.01 337.99 122.01H336.115ZM336.115 121.107H337.814C338.307 121.107 338.699 120.984 338.992 120.738C339.289 120.492 339.438 120.158 339.438 119.736C339.438 119.268 339.301 118.928 339.027 118.717C338.754 118.502 338.338 118.395 337.779 118.395H336.115V121.107ZM342.01 122.771C342.01 122.15 342.131 121.592 342.373 121.096C342.619 120.6 342.959 120.217 343.393 119.947C343.83 119.678 344.328 119.543 344.887 119.543C345.75 119.543 346.447 119.842 346.979 120.439C347.514 121.037 347.781 121.832 347.781 122.824V122.9C347.781 123.518 347.662 124.072 347.424 124.564C347.189 125.053 346.852 125.434 346.41 125.707C345.973 125.98 345.469 126.117 344.898 126.117C344.039 126.117 343.342 125.818 342.807 125.221C342.275 124.623 342.01 123.832 342.01 122.848V122.771ZM343.1 122.9C343.1 123.604 343.262 124.168 343.586 124.594C343.914 125.02 344.352 125.232 344.898 125.232C345.449 125.232 345.887 125.018 346.211 124.588C346.535 124.154 346.697 123.549 346.697 122.771C346.697 122.076 346.531 121.514 346.199 121.084C345.871 120.65 345.434 120.434 344.887 120.434C344.352 120.434 343.92 120.646 343.592 121.072C343.264 121.498 343.1 122.107 343.1 122.9ZM348.854 122.771C348.854 122.15 348.975 121.592 349.217 121.096C349.463 120.6 349.803 120.217 350.236 119.947C350.674 119.678 351.172 119.543 351.73 119.543C352.594 119.543 353.291 119.842 353.822 120.439C354.357 121.037 354.625 121.832 354.625 122.824V122.9C354.625 123.518 354.506 124.072 354.268 124.564C354.033 125.053 353.695 125.434 353.254 125.707C352.816 125.98 352.312 126.117 351.742 126.117C350.883 126.117 350.186 125.818 349.65 125.221C349.119 124.623 348.854 123.832 348.854 122.848V122.771ZM349.943 122.9C349.943 123.604 350.105 124.168 350.43 124.594C350.758 125.02 351.195 125.232 351.742 125.232C352.293 125.232 352.73 125.018 353.055 124.588C353.379 124.154 353.541 123.549 353.541 122.771C353.541 122.076 353.375 121.514 353.043 121.084C352.715 120.65 352.277 120.434 351.73 120.434C351.195 120.434 350.764 120.646 350.436 121.072C350.107 121.498 349.943 122.107 349.943 122.9ZM357.754 123.064L357.074 123.773V126H355.99V117H357.074V122.443L357.654 121.746L359.629 119.66H360.947L358.48 122.309L361.234 126H359.963L357.754 123.064ZM363.086 119.66L363.115 120.363C363.58 119.816 364.207 119.543 364.996 119.543C365.883 119.543 366.486 119.883 366.807 120.562C367.018 120.258 367.291 120.012 367.627 119.824C367.967 119.637 368.367 119.543 368.828 119.543C370.219 119.543 370.926 120.279 370.949 121.752V126H369.865V121.816C369.865 121.363 369.762 121.025 369.555 120.803C369.348 120.576 369 120.463 368.512 120.463C368.109 120.463 367.775 120.584 367.51 120.826C367.244 121.064 367.09 121.387 367.047 121.793V126H365.957V121.846C365.957 120.924 365.506 120.463 364.604 120.463C363.893 120.463 363.406 120.766 363.145 121.371V126H362.061V119.66H363.086ZM376.504 126C376.441 125.875 376.391 125.652 376.352 125.332C375.848 125.855 375.246 126.117 374.547 126.117C373.922 126.117 373.408 125.941 373.006 125.59C372.607 125.234 372.408 124.785 372.408 124.242C372.408 123.582 372.658 123.07 373.158 122.707C373.662 122.34 374.369 122.156 375.279 122.156H376.334V121.658C376.334 121.279 376.221 120.979 375.994 120.756C375.768 120.529 375.434 120.416 374.992 120.416C374.605 120.416 374.281 120.514 374.02 120.709C373.758 120.904 373.627 121.141 373.627 121.418H372.537C372.537 121.102 372.648 120.797 372.871 120.504C373.098 120.207 373.402 119.973 373.785 119.801C374.172 119.629 374.596 119.543 375.057 119.543C375.787 119.543 376.359 119.727 376.773 120.094C377.188 120.457 377.402 120.959 377.418 121.6V124.518C377.418 125.1 377.492 125.562 377.641 125.906V126H376.504ZM374.705 125.174C375.045 125.174 375.367 125.086 375.672 124.91C375.977 124.734 376.197 124.506 376.334 124.225V122.924H375.484C374.156 122.924 373.492 123.312 373.492 124.09C373.492 124.43 373.605 124.695 373.832 124.887C374.059 125.078 374.35 125.174 374.705 125.174ZM382.182 120.633C382.018 120.605 381.84 120.592 381.648 120.592C380.938 120.592 380.455 120.895 380.201 121.5V126H379.117V119.66H380.172L380.189 120.393C380.545 119.826 381.049 119.543 381.701 119.543C381.912 119.543 382.072 119.57 382.182 119.625V120.633ZM384.953 123.064L384.273 123.773V126H383.189V117H384.273V122.443L384.854 121.746L386.828 119.66H388.146L385.68 122.309L388.434 126H387.162L384.953 123.064Z" fill="#DADCE0"/>
</g>
</g>
<rect x="45" y="140" width="669" height="1" fill="#DADCE0"/>
</g>
</g>
<defs>
<filter id="filter0_d_4_416" x="0" y="0" width="763" height="585" filterUnits="userSpaceOnUse" color-interpolation-filters="sRGB">
<feFlood flood-opacity="0" result="BackgroundImageFix"/>
<feColorMatrix in="SourceAlpha" type="matrix" values="0 0 0 0 0 0 0 0 0 0 0 0 0 0 0 0 0 0 127 0" result="hardAlpha"/>
<feOffset dy="15"/>
<feGaussianBlur stdDeviation="22.5"/>
<feColorMatrix type="matrix" values="0 0 0 0 0 0 0 0 0 0 0 0 0 0 0 0 0 0 0.45 0"/>
<feBlend mode="normal" in2="BackgroundImageFix" result="effect1_dropShadow_4_416"/>
<feBlend mode="normal" in="SourceGraphic" in2="effect1_dropShadow_4_416" result="shape"/>
</filter>
<linearGradient id="paint0_linear_4_416" x1="336.5" y1="70" x2="336.5" y2="99" gradientUnits="userSpaceOnUse">
<stop stop-color="#35363A" stop-opacity="0"/>
<stop offset="0.341368" stop-color="#35363A"/>
</linearGradient>
<clipPath id="clip0_4_416">
<rect x="45" y="30" width="673" height="495" rx="5" fill="white"/>
</clipPath>
<clipPath id="clip1_4_416">
<rect width="344" height="40" fill="white" transform="translate(45 30)"/>
</clipPath>
<clipPath id="clip2_4_416">
<rect width="47" height="14" fill="white" transform="translate(129 46)"/>
</clipPath>
<clipPath id="clip3_4_416">
<rect width="32" height="40" fill="white" transform="translate(357 30)"/>
</clipPath>
<clipPath id="clip4_4_416">
<rect width="16" height="16" fill="white" transform="translate(603 80)"/>
</clipPath>
<clipPath id="clip5_4_416">
<rect width="263" height="16" fill="white" transform="translate(126 114)"/>
</clipPath>
<clipPath id="clip6_4_416">
<rect width="55" height="14" fill="white" transform="translate(152 115)"/>
</clipPath>
<clipPath id="clip7_4_416">
<rect width="55" height="14" fill="white" transform="translate(243 115)"/>
</clipPath>
<clipPath id="clip8_4_416">
<rect width="55" height="14" fill="white" transform="translate(334 115)"/>
</clipPath>
</defs>
</svg>
